<svg xmlns="http://www.w3.org/2000/svg" viewBox="0 0 512 512" width="512" height="512">
  <rect width="512" height="512" fill="#667eea" rx="64"/>
  <g fill="white">
    <!-- 灵感灯泡图标 -->
    <path d="M256 64c-70.7 0-128 57.3-128 128 0 35.3 14.3 67.3 37.4 90.4L192 320h128l26.6-37.6C369.7 259.3 384 227.3 384 192c0-70.7-57.3-128-128-128z"/>
    <!-- 底座 -->
    <rect x="208" y="320" width="96" height="32" rx="16"/>
    <rect x="224" y="352" width="64" height="24" rx="12"/>
    <rect x="232" y="376" width="48" height="16" rx="8"/>
    
    <!-- 装饰性闪光 -->
    <circle cx="200" cy="140" r="8" opacity="0.7"/>
    <circle cx="320" cy="180" r="6" opacity="0.7"/>
    <circle cx="180" cy="200" r="4" opacity="0.7"/>
  </g>
</svg>
